<?xml version="1.0"?>
<svg xmlns:rdf="http://www.w3.org/1999/02/22-rdf-syntax-ns#" xmlns="http://www.w3.org/2000/svg" xmlns:cc="http://creativecommons.org/ns#" xmlns:xlink="http://www.w3.org/1999/xlink" xmlns:dc="http://purl.org/dc/elements/1.1/" xmlns:svg="http://www.w3.org/2000/svg" id="svg2" viewBox="0 0 178.55 243.99" version="1.0">
  <defs id="defs4">
    <radialGradient id="radialGradient3207" gradientUnits="userSpaceOnUse" cy="506.65" cx="417.5" gradientTransform="matrix(1 0 0 1.4783 0 -242.31)" r="24.643">
      <stop id="stop2970" stop-color="#f95" offset="0"/>
      <stop id="stop2972" stop-color="#f95" stop-opacity="0" offset="1"/>
    </radialGradient>
    <linearGradient id="linearGradient3209" y2="486.61" gradientUnits="userSpaceOnUse" x2="358.86" y1="375.49" x1="342.63">
      <stop id="stop2918" stop-color="#a40" offset="0"/>
      <stop id="stop2920" stop-color="#a40" stop-opacity="0" offset="1"/>
    </linearGradient>
    <linearGradient id="linearGradient3211" y2="523.06" gradientUnits="userSpaceOnUse" x2="348" y1="413.96" x1="337.9">
      <stop id="stop2928" stop-color="#f60" offset="0"/>
      <stop id="stop2930" stop-color="#fc0" stop-opacity="0" offset="1"/>
    </linearGradient>
    <linearGradient id="linearGradient3213" y2="450.67" gradientUnits="userSpaceOnUse" x2="385.2" y1="513.3" x1="426.8">
      <stop id="stop2938" stop-color="#dcdcdc" offset="0"/>
      <stop id="stop2940" stop-color="#dcdcdc" stop-opacity="0" offset="1"/>
    </linearGradient>
    <linearGradient id="linearGradient3215" y2="461.86" gradientUnits="userSpaceOnUse" x2="294.15" y1="536.74" x1="317.38">
      <stop id="stop2948" stop-color="#dcdcdc" offset="0"/>
      <stop id="stop2950" stop-color="#dcdcdc" stop-opacity="0" offset="1"/>
    </linearGradient>
    <linearGradient id="linearGradient3217" y2="343.79" gradientUnits="userSpaceOnUse" x2="388.57" gradientTransform="translate(2.0203 6.0609)" y1="464.51" x1="380">
      <stop id="stop2923" stop-color="#ffe680" offset="0"/>
      <stop id="stop2925" stop-color="#ffe680" stop-opacity="0" offset="1"/>
    </linearGradient>
    <linearGradient id="linearGradient3219" y2="400.12" gradientUnits="userSpaceOnUse" x2="381.84" y1="97.071" x1="428.3">
      <stop id="stop2933" stop-color="#a40" offset="0"/>
      <stop id="stop2935" stop-color="#a40" stop-opacity="0" offset="1"/>
    </linearGradient>
    <linearGradient id="linearGradient3221" y2="472.55" gradientUnits="userSpaceOnUse" x2="476.48" y1="396.12" x1="439.29">
      <stop id="stop2961" stop-color="#f60" offset="0"/>
      <stop id="stop2963" stop-color="#f60" stop-opacity="0" offset="1"/>
    </linearGradient>
    <linearGradient id="linearGradient3223" y2="471.36" gradientUnits="userSpaceOnUse" y1="463.16" x2="508.26" x1="473.43">
      <stop id="stop2971" stop-color="#e3dedb" offset="0"/>
      <stop id="stop2973" stop-color="#e3dedb" stop-opacity="0" offset="1"/>
    </linearGradient>
    <linearGradient id="linearGradient3227" y2="503.99" gradientUnits="userSpaceOnUse" x2="364.84" y1="666.13" x1="273.15">
      <stop id="stop2959" stop-color="#fff" offset="0"/>
      <stop id="stop2962" stop-color="#fff" stop-opacity="0" offset="1"/>
    </linearGradient>
    <linearGradient id="linearGradient3231" y2="539.74" gradientUnits="userSpaceOnUse" x2="331.38" y1="519.32" x1="329.14">
      <stop id="stop2996" stop-color="#a05a2c" offset="0"/>
      <stop id="stop2998" stop-color="#a05a2c" stop-opacity="0" offset="1"/>
    </linearGradient>
    <linearGradient id="linearGradient3233" y2="514.13" gradientUnits="userSpaceOnUse" x2="325.77" gradientTransform="matrix(1.1415 .079907 -.069830 .99756 -12.078 -24.954)" y1="527" x1="315.71">
      <stop id="stop2988" stop-color="#fff" offset="0"/>
      <stop id="stop2990" stop-color="#fff" stop-opacity="0" offset="1"/>
    </linearGradient>
    <linearGradient id="linearGradient3235" y2="503.34" gradientUnits="userSpaceOnUse" x2="238.33" y1="438.44" x1="238.33">
      <stop id="stop3046" stop-color="#f4e3d7" offset="0"/>
      <stop id="stop3048" stop-color="#f4e3d7" stop-opacity="0" offset="1"/>
    </linearGradient>
  </defs>
  <g id="layer1" transform="translate(-33.479 -6.1506)">
    <path id="path3205" d="m385.53 117.59c-0.5 0.04-0.99 0.12-1.47 0.25 0 0-42.04 11.35-66.5 51.85-4.32 7.15-7.43 13.83-9.72 20.06-0.28-3.73-0.39-7.69-0.31-11.87 0.81-39.41-34.5-58.69-34.5-58.69-3.3-1.9-7.5-0.94-9.65 2.21-2.14 3.14-1.51 7.41 1.46 9.79 0 0 4.09 3.3 7.22 11.06s5.05 19.42-1.5 36.44c-8.9 23.15-7.34 47.54-4.44 64.43-5.76-4.23-12.4-8.84-20.71-13.78-12.55-7.45-23.92-9.58-32.19-9.68-8.27-0.11-14.1 1.96-14.1 1.96-2.58 0.98-4.39 3.33-4.68 6.07-0.28 2.75 1.01 5.42 3.34 6.9 0 0 20.4 13.35 30.53 29.82 4.84 7.86 7.11 18.58 5.94 24.62-0.59 3.02-1.63 4.54-2.97 5.41-1.33 0.86-3.72 1.6-8.69 0.47-3.42-0.79-8.43-4.65-13.25-11.07-4.81-6.41-9.41-14.95-13.25-23.4-7.68-16.91-12.4-33.28-12.4-33.28-0.94-3.31-4.06-5.51-7.49-5.29-3.43 0.23-6.24 2.82-6.73 6.22 0 0-2.97 20.54 1.37 62.53 2.36 22.79 14 40.7 22.6 52.76 1.2 1.68 1.44 2.12 2.5 3.59-1.32-0.97-2.62-2.07-3.85-3.25-4.72-4.56-7.93-9.31-7.93-9.31-1.91-2.85-5.53-3.98-8.71-2.74-3.19 1.25-5.08 4.55-4.54 7.92 0 0 1.27 7.87 3.28 17.1s4.38 19.49 8.19 26.62c4.28 8.03 12.21 11.33 19 13.57 6.29 2.06 12.06 3.57 15.65 5.34-0.2 0.44-0.15 0.48-0.69 1.22-2.01 2.77-5.59 5.68-5.59 5.68-3 2.26-3.8 6.42-1.84 9.63 1.96 3.2 6.03 4.39 9.4 2.75l9-4.16c-0.55 0.43-1.03 0.94-1.43 1.5 0 0-1.9 2.82-3.97 6.75-0.08 0.15-0.08 0.1-0.16 0.25-0.14 0.27-0.17 0.34-0.13 0.25-1.57 2.62-3.09 5.95-4.24 10-0.01 0.01-0.04 0-0.04 0-0.02 0.08-0.03 0.18-0.06 0.25-0.01 0.06-0.05 0.1-0.06 0.16-2.74 8.28-4.49 18.9-0.88 29.75 0.75 2.24 1.55 4.36 2.38 6.41 0.07 0.23 0.17 0.42 0.25 0.65 3.34 10.22 9.17 17.65 12.81 21.69l-0.03 0.03c0.13 0.16 0.12 0.1 0.25 0.25 1.47 1.75 2.69 3.06 2.69 3.06 1.03 1.06 2.36 1.78 3.81 2.07l5.19 1.03 5.9 6.72c1.03 1.15 2.4 1.95 3.91 2.28h0.03c0.76 0.33 1.58 0.53 2.41 0.59 0.62 1.48 1.15 2.94 1.84 4.44 3.12 6.72 6.56 12.73 10.03 17.62 3.03 4.27 5.92 7.63 9.38 10.13 3.97 6.09 8.12 11.92 12.47 17.4 0.01 0.02 0.01 0.05 0.03 0.07v0.03c2.27 2.87 4.61 5.63 6.93 8.28 0.65 0.74 0.66 0.75 0.04 0.03 1.54 1.77 3.1 3.5 4.68 5.19 0.34 0.36 0.35 0.36 0.04 0.03 0.78 0.83 1.55 1.59 2.28 2.34 0.03 0.03 0.06 0.07 0.09 0.1v0.03c0.85 0.88 1.67 1.67 2.41 2.4 0.75 0.76 1.54 1.55 2.4 2.38 3.23 3.1 6.47 5.99 9.72 8.66 0 0 0.09 0.03 0.1 0.03 3.21 2.63 6.41 5.09 9.65 7.31 0 0 0.18 0.09 0.25 0.12 0.65 0.45 1.33 0.98 2.19 1.54l0.12 0.06c0.71 0.45 1.47 0.95 2.32 1.47 2.99 1.83 5.98 3.42 8.87 4.78-0.25-0.12-0.21-0.09 0.19 0.09-0.22-0.1-0.03 0.01 0.56 0.28 0 0 0.12 0.03 0.13 0.04 2.33 1.06 4.64 1.98 6.96 2.74 1.17 0.39 2.01 0.46 2.54 0.44-0.52 0.02-1.34-0.02-2.5-0.4 0.73 0.24 1.52 0.45 2.34 0.68 3.14 0.89 6.24 1.47 9.28 1.66 0.73 0.05 1.49 0.06 2.28 0.06 1.13 0 2.23-0.02 3.28-0.06-0.51 0.02-0.47 0.02 0.13 0 1.81-0.07 3.64-0.19 5.47-0.38 2.12-0.21 4.18-0.54 6.18-0.9-0.46 0.08-0.37 0.08 0.26-0.03 0.62-0.12 1.08-0.2 1.34-0.25 0.08-0.02 0.19-0.07 0.34-0.1-0.59 0.13-0.45 0.13 0.44-0.06 0.77-0.16 1.47-0.32 2.09-0.47 0.66-0.15 1.36-0.34 2.07-0.53-0.84 0.22-0.8 0.22 0.15-0.03 0.82-0.22 1.46-0.41 1.88-0.53 0.62-0.19 1.3-0.4 2-0.63 0.01 0 0.02 0.01 0.03 0 0.01 0 0.02 0.01 0.03 0 1.99-0.64 3.97-1.34 5.94-2.15 0.61-0.26 1.11-0.49 1.5-0.66-0.1 0.04 0.04-0.03 0.4-0.19 0.34-0.15 0.68-0.29 1-0.43 2.87-1.31 5.62-2.77 8.32-4.38 0.65-0.39 1.23-0.75 1.71-1.06 0.03-0.02 0.01-0.02 0.04-0.03 0.24-0.16 0.54-0.33 0.9-0.57 0.85-0.54 1.67-1.13 2.47-1.68 0.04-0.03 0.09-0.04 0.13-0.06 0-0.01 0.03 0 0.03 0 3.39-2.36 6.65-4.95 9.75-7.76 0.04-0.03 0.08-0.05 0.12-0.09 0.03-0.02 0.04-0.01 0.06-0.03 4.73-4.29 9.11-9.06 13.16-14.25 0.42-0.54 0.82-1.07 1.19-1.56 0.07-0.1 0.1-0.13 0.09-0.13 0.19-0.24 0.43-0.57 0.72-0.97 0.27-0.36 0.55-0.72 0.81-1.09-0.01 0.01 0.37-0.5 1.1-1.53 0.03-0.05 0.03-0.02 0.06-0.06 0.86-1.22 1.64-2.42 2.37-3.53-0.02 0.03 0 0 0.07-0.1-0.03 0.05-0.01 0.02 0.06-0.09 4.09-6.23 7.74-12.9 11.03-19.91-0.92 1.96-0.89 1.94 0.06-0.09 0.66-1.4 1.24-2.74 1.82-4.07l0.03-0.06c0.01-0.02 0.02-0.01 0.03-0.03 0.34-0.77 0.69-1.54 1-2.28 0.03-0.08 0.14-0.33 0.31-0.75 0.18-0.43 0.37-0.88 0.56-1.34 0.17-0.4 0.31-0.79 0.47-1.19 0.14-0.35 0.31-0.75 0.47-1.16 0.26-0.65 0.53-1.33 0.81-2.06 0.64-1.68 0.64-1.72 0.04-0.13 0.19-0.51 0.34-0.98 0.5-1.4 0.19-0.53 0.46-1.18 0.74-1.97 0.42-1.15 0.84-2.31 1.22-3.44 0.19-0.56 0.32-1.01 0.47-1.47l17.5-3.62c2.86-0.59 5.08-2.83 5.66-5.69l0.34-1.72c1.38 0.02 2.51 0.16 4.1 0.03 6.12-0.49 14.45-2.28 19.62-9.68 4.31-6.18 6.67-14.78 8.69-24.57 2.02-9.78 3.22-20.22 2.78-28.75-0.93-18.2-3.68-28.01-7.12-34.09-1.73-3.04-3.71-5.13-5.76-6.44-1.02-0.65-2.03-1.11-2.93-1.37-0.65-0.19-1.18-0.24-1.63-0.28v-0.07l-9.44-1.09-0.59-1.19c-0.71-1.41-1.86-2.55-3.28-3.25l-9.66-4.84c3.06-0.04 8.49 0.44 16.16 0.44 11.53 0 22.31 8.9 22.31 8.9 2.91 2.52 7.27 2.34 9.96-0.41 2.7-2.74 2.8-7.1 0.23-9.96 0 0-3.84-4.24-8.22-8.53-2.19-2.15-4.49-4.29-6.72-6.1-1.11-0.9-2.21-1.7-3.43-2.44-1.23-0.73-2.33-1.74-5.57-1.74 2.51 0 0.54 0.02-0.93-0.79-1.48-0.8-3.42-2.07-5.19-3.47-1.78-1.39-3.4-2.96-4.35-4.15-0.13-0.16-0.12-0.2-0.22-0.35 0.19-0.28 0.2-0.41 0.6-0.81 1.58-1.6 4.3-3.85 7.47-6.43 6.33-5.17 14.56-11.73 20.72-20.35 7.29-10.21 6.74-22.85 5.28-32.72-1.47-9.86-4.41-17.65-4.41-17.65-0.57-1.53-1.64-2.81-3.03-3.66 2.24-5.6 4.3-11.24 6-16.56 4.12-12.87-2.87-24.79-9.34-33.32-6.48-8.52-13.63-14.5-13.63-14.5-2.61-2.22-6.42-2.32-9.15-0.24-2.73 2.09-3.63 5.8-2.16 8.9 0 0 1.94 4.19 3.47 9.5 1.52 5.31 1.96 11.68 1.28 13.6-0.93 2.61-3.71 5.23-6.53 6.5-1.16 0.51-2.09 0.63-2.81 0.71-0.13-0.34-0.25-0.53-0.35-1.06-0.35-1.93-0.54-4.84-0.5-8.28 0.08-6.87 1.1-15.85 2.81-24.78 3.01-15.61 16.69-30.63 16.69-30.63 2.33-2.44 2.67-6.17 0.83-9-1.85-2.83-5.4-4.02-8.58-2.87 0 0-7.73 2.76-15.97 8.31-8.23 5.55-17.83 14.23-20.15 27.25-1.1 6.15-7.16 13.59-13.88 19.5 1.02-4.94 1.72-10.11 1.16-15.41-1.81-17.15-14.82-29.96-14.82-29.96-2.11-2.24-5.41-2.91-8.23-1.67s-4.55 4.12-4.33 7.2 0.31 4.41 0.06 10.03c-0.24 5.61-1.33 12.39-2.87 15.47-0.39 0.78-2.99 3-6.31 5.37 1.01-2.75 1.86-5.63 2.28-8.65 0.73-5.3 0.15-11.45-3.69-16.47-2.96-3.87-7.37-16.08-10.06-26.56-2.69-10.49-4.25-19.54-4.25-19.54-0.55-3.09-3.01-5.49-6.12-5.94-3.11-0.46-6.16 1.13-7.57 3.94 0 0-7.94 16.1-7.94 41.82 0 10.64-3.3 19.16-6.81 24.96-0.81 1.35-1.62 2.51-2.4 3.54-1.18-4.59-2.75-11.08-4.97-20.85-4-17.52 3.09-36.76 11.81-51.75 8.72-14.98 18.5-25.12 18.5-25.12 2.1-2.16 2.65-5.39 1.39-8.12-1.26-2.74-4.07-4.42-7.08-4.23zm-23.19 113.85c-0.02 0.02-0.1 0.08-0.12 0.09-0.03 0.01-0.07 0.02-0.1 0.03 0.02-0.05 0.05-0.05 0.22-0.12z" fill="#2b2200" transform="matrix(.49443 0 0 .49443 -49.822 -51.984)" fill-rule="evenodd"/>
    <g id="g3052" transform="matrix(.49443 0 0 .49443 -49.822 -51.984)">
      <path id="path2321" d="m263.57 403.79l-12.14 6.43-5.72 10-12.85 3.57s-15.98 11.61-7.86 44.29c3.72 14.96 15 25 15 25l9.29 1.43 7.14 9.28h12.86s-12.86-62.86-5.72-100z" stroke="#000" stroke-width="1px" fill-rule="evenodd"/>
      <path id="path2310" d="m466 443.22c0 79.65-36.13 160.57-102.43 160.57-38.44 0-111.86-80.92-111.86-160.57s42-122.29 101.15-122.29c59.14 0 113.14 42.64 113.14 122.29z" fill="#f4e3d7"/>
      <path id="path2966" opacity=".83254" d="m442.14 506.65a24.643 36.429 0 1 1 -49.28 0 24.643 36.429 0 1 1 49.28 0z" fill="url(#radialGradient3207)"/>
      <path id="path2906" d="m466 443.22c0 79.65-36.13 160.57-102.43 160.57-38.44 0-111.86-80.92-111.86-160.57s42-122.29 101.15-122.29c59.14 0 113.14 42.64 113.14 122.29z" fill="url(#linearGradient3209)"/>
      <path id="path2315" d="m252.73 441.77s39.29 17.14 67.86 17.14 80-1.43 111.43-14.28l31.43-12.86-2.86 18.57s-34.28 20-50 38.57c-15.71 18.57-60.71 17.15-72.14 14.29s-12.14-13.57-19.29-14.29c-7.24-0.72-10.71 10.72-10.71 10.72s-14.29 5.71-32.14-3.57c-11.69-6.08-25-28.58-23.58-54.29z" stroke="#000" stroke-width="1px" fill-rule="evenodd"/>
      <path id="path2317" d="m305 548.08s45.37 12.53 91.43-9.29c13.57-6.43 20-10.71 20-10.71s-2.86 7.85-23.57 27.14c-22.93 21.35-27.15 21.43-27.15 21.43s-42.85-21.43-60.71-28.57z" stroke="#000" stroke-width="1px" fill-rule="evenodd"/>
      <path id="path2319" d="m468.99 400.98s-14.14 7.08-18.07 15.72c-3.93 8.65-10.22 42.45-9.44 62.88 0.79 20.44 12.58 37.73 12.58 37.73l22.79-4.71 1.58-7.86s17.19 2.99 23.63-6.24c5.73-8.2 10.94-33.85 10.17-48.78-1.8-35.14-11.01-35.37-11.01-35.37l-13.36-1.58-2.36-4.71-12.58-6.29-3.93-0.79z" stroke="#000" stroke-width="1.1004px" fill-rule="evenodd"/>
      <path id="path2924" d="m259.61 450.31s32.32 13.13 48.49 13.13c16.16 0 101.01-7.07 101.01-7.07l27.28-9.09-8.09 16.16-10.1 8.08-5.05-12.12s-6.06 6.06-9.09 15.15l-3.03 9.1-4.04-19.2s-9.09 0-17.17 13.14c-8.08 13.13-9.09 14.14-9.09 14.14l-4.04-25.26s-24.25-6.06-30.31 7.07c-6.06 13.14 10.1 14.15 10.1 14.15s-1.01 10.1-14.14-1.01-15.15-14.15-15.15-14.15-10.1 1.01-13.13 13.14c-3.03 12.12-5.05 7.07-5.05 7.07l-11.12-24.25s-2.02 2.02-2.02 12.13c0 10.1-12.12-2.02-12.12-12.13 0-10.1-8.08 1.01-8.08 1.01l-6.06-19.19z" fill-rule="evenodd" stroke="#000" stroke-width="1px" fill="url(#linearGradient3211)"/>
      <path id="path2902" fill-rule="evenodd" fill="#f60" d="m295.25 411.3s-12.15 15-15 20c-2.86 5-6.43 7.86-6.43 7.86s-6.43-15.72-7.15-20.72c-0.71-5-5.71 2.15-8.57 6.43-2.85 4.29 1.43 37.86 7.15 46.43 5.71 8.57-2.15 3.57-2.15 3.57s-20-27.85-20-40.71-5.71 3.57-5.71 3.57l-3.57-31.43-18.57 8.57s16.42-12.85 6.42-18.57c-10-5.71-27.14-5.71-32.85-16.43-5.72-10.71-10.72-41.43-10.72-41.43s14.29 21.43 28.57 20c14.29-1.42-24.28-27.14-28.57-68.57-4.28-41.43-1.43-60.71-1.43-60.71s19.29 67.14 44.29 72.86c25 5.71 25-22.86 13.57-41.43s-32.86-32.15-32.86-32.15 17.15-6.42 40 7.15c22.86 13.57 36.43 26.43 36.43 26.43s-15-43.58-0.71-80.72c14.28-37.14-7.86-55.71-7.86-55.71s31.43 17.14 30.72 52.14c-0.72 35 12.85 56.43 12.85 56.43s-12.14-22.86 10.72-60.72c22.85-37.85 62.14-48.57 62.14-48.57s-41.43 42.86-32.14 83.57c9.28 40.72 7.85 30 10.71 30s17.86-15 17.86-39.28c0-24.29 7.14-38.57 7.14-38.57s6.43 37.14 15.72 49.28c9.28 12.15-10.72 37.86-10.72 37.86s25.72-9.29 30.72-19.29 3.57-29.28 3.57-29.28 11.43 12.14 12.85 25.71c1.43 13.57-7.14 32.86-7.14 32.86s30.72-16.43 34.29-36.43 31.43-30 31.43-30-15 15.72-18.58 34.29c-3.57 18.57-4.28 37.14 0 41.43 4.29 4.28 17.86-0.72 21.43-10.72s-5-28.57-5-28.57 26.43 22.14 20.72 40c-5.72 17.86-15 40-24.29 47.14-9.28 7.15-10.71 15-3.57 15s25-15.71 25-25.71v-11.43s10.71 28.57 0 43.57-30.71 25-30.71 31.43 15 16.43 18.57 16.43 18.57 16.43 18.57 16.43-12.14-10.72-27.14-10.72-21.43-2.14-24.29 2.86-14.29 9.29-14.29 9.29-12.85-3.58-13.57 17.85c-0.71 21.43-32.14 80.72-32.14 80.72s25-65 22.86-80.72c-2.15-15.71-10-16.43-10-16.43s12.14 26.43 5.71 41.43-14.28 23.57-14.28 23.57 11.42-33.57 6.42-42.14-6.42-2.14-6.42-2.14-0.72 25.71-5 27.14c-4.29 1.43 0.71-2.14-8.58-15-9.28-12.86-15-2.14-15-2.14s-12.14 5.71-12.14 17.14v11.43s-20-15-22.86-30c-2.85-15-4.28-24.29-4.28-24.29s-12.86 5-12.14 20c0.71 15 1.42 19.29 1.42 19.29s-25.71 7.86-41.42-36.43z"/>
      <path id="path2934" d="m336.38 499.81s56.57 4.04 68.69-7.07 9.09-29.3 9.09-29.3-96.97 15.16-77.78 36.37z" fill="url(#linearGradient3213)" fill-rule="evenodd"/>
      <path id="path2900" d="m460 418.79c1.76-34.84-29.95-53.86-0.93-39.05 12.81 18.45 13.07 29.77 13.07 29.77l-12.14 9.28z" stroke="#000" stroke-width="1px" fill-rule="evenodd"/>
      <path id="path2944" d="m266.68 486.68s25.25 17.17 34.35 10.1c9.09-7.07-36.37-26.27-37.38-33.34s-7.07 11.11 3.03 23.24z" fill="url(#linearGradient3215)" fill-rule="evenodd"/>
      <path id="path2342" d="m243.45 358.42s-7.86 3.57-17.14-5.71c-9.29-9.29-10-13.57-10-13.57s5.71 29.28 19.28 32.85c13.57 3.58 30.72 1.43 30.72 1.43s-15 4.29-20.72 15c-5.71 10.72 3.57 27.15 3.57 27.15s16.43-30.72 37.15-30.72c20.71 0 2.14 4.29-0.72 12.86s-2.86 25-2.86 22.14 16.43-19.28 22.86-23.57l6.43-4.29s-6.43 12.15 0.71 26.43c7.15 14.29 16.43 17.86 16.43 17.86s-7.14-36.43 0-41.43c7.15-5 17.15-5 17.15-5s11.42 3.57 11.42 15.72c0 12.14 5.72 29.28 5.72 29.28s8.57-22.86 20-22.86 18.57 10.72 18.57 10.72l5-13.57s2.86-0.72 7.86 6.43c5 7.14 7.14 12.85 7.14 5.71v-24.29s2.86-1.42 15 1.43c12.14 2.86 12.86 0 12.86 0s-14.29-15.71-4.29-27.85c10-12.15 31.43-12.15 31.43-12.15s-28.57-9.28-40-7.14-7.86 27.14-7.86 27.14-9.28 0-12.85-8.57c-3.58-8.57-5-14.28-5-14.28s-5 10.71-2.15 22.85c2.86 12.15 5 12.86 5 12.86l-17.14-20 0.71 25s-12.85-5-15.71-20-10.71 22.86-10.71 22.86-5.72-5.72-10-17.86c-4.29-12.14-26.43-12.14-31.43-5s-7.86 12.86-7.86 12.86l-3.57-12.15-10.72 5s0-14.28-15-12.14-15.71 6.43-15.71 6.43l-1.43-17.14s-21.43 5.71-32.14-0.72z" fill="url(#linearGradient3217)" fill-rule="evenodd"/>
      <path id="path2929" d="m181.83 263.43s2.02 46.47 17.17 61.62 31.31 16.16 31.31 16.16-8.08-17.17-1.01-20.2c7.08-3.03 16.17 1.01 16.17 1.01v-13.13l13.13-1.01s7.07-10.1 0-26.26c-7.07-16.17-10.1-22.23-10.1-22.23s33.33 23.24 33.33 31.32 11.11-14.14 11.11-28.29v-34.34s12.13 44.44 23.24 46.46c11.11 2.03 13.13 2.03 13.13 2.03s-5.05-20.21 0-45.46c5.05-25.26 8.08 31.31 22.22 39.39 14.15 8.09 28.29-23.23 28.29-23.23l-1.01 23.23s29.29-7.07 40.4-16.16 11.11-17.17 12.13-13.13c1.01 4.04-11.12 25.25-8.09 35.36 3.03 10.1 5.05 12.12 5.05 12.12s26.27-31.32 37.38-34.35-14.14 27.28-12.12 45.46 29.29-5.05 29.29-5.05l-24.24 32.32s1.01 12.12 13.13 12.12 25.26-3.03 25.26-3.03-30.31 16.17-40.41 5.05c-10.1-11.11-5.05-23.23-5.05-23.23h-19.19l6.06-22.22h-20.21l-11.11-17.17s-12.12 7.07-21.21 7.07-14.14 26.26-14.14 26.26l-9.1-21.21s-8.08-5.05-27.27 9.09-28.28 40.4-28.28 40.4l6.06-38.38s-24.25 11.11-29.3 14.14-16.16 20.2-16.16 20.2v-17.17l-18.18 6.06v27.28l-22.23 1.01s-40.4 0-45.45-89.91z" fill="url(#linearGradient3219)" fill-rule="evenodd"/>
      <path id="path2957" d="m447.14 430.22s19.29-0.71 22.15 1.43c2.85 2.14 5.71 7.14 5.71 7.14h12.14s11.43 9.29 12.15 15c0.71 5.72-1.43-12.86-1.43-12.86l-2.15-7.14s3.58-4.28 5.72 2.14c2.14 6.43 5 5 4.28 1.43-0.71-3.57-5.71-13.57-5.71-13.57v-2.86l-8.57-2.14-7.14-2.86-2.86-5-12.14-6.42s-3.58-0.72-3.58-4.29-2.85-7.14-2.85-7.14l-2.86-5.72-2.14 7.15 3.57 12.14s-14.29 7.86-14.29 23.57z" fill="url(#linearGradient3221)" fill-rule="evenodd"/>
      <path id="path2967" opacity=".83254" d="m522.86 462.01a15 41.786 0 1 1 -30 0 15 41.786 0 1 1 30 0z" fill="url(#linearGradient3223)" transform="matrix(.88032 .033270 -.037443 .99075 67.72 -16.549)"/>
      <path id="path2977" d="m522.86 462.01a15 41.786 0 1 1 -30 0 15 41.786 0 1 1 30 0z" fill="url(#linearGradient3223)" transform="matrix(1.1167 .037862 -.047498 1.1275 -65.559 -84.2)"/>
      <path id="path2368" d="m262.5 381.34c-6.98 17.15-10.78 37.83-10.78 61.88 0 79.64 73.41 160.56 111.84 160.56 44.16 0 74.94-35.9 90.56-83.4-16.51 42.46-45.96 73.4-86.96 73.4-38.44 0-111.88-80.92-111.88-160.56 0-19.55 2.53-36.87 7.22-51.88z" fill="url(#linearGradient3227)"/>
      <path id="path2978" opacity=".52632" d="m442.14 506.65a24.643 36.429 0 1 1 -49.28 0 24.643 36.429 0 1 1 49.28 0z" fill="url(#radialGradient3207)" transform="matrix(.33017 -.16138 .38764 .83473 -61.744 152.9)"/>
      <path id="path2982" d="m311.64 525.34s16.4-0.29 25.22 2.48c8.82 2.76-14.1 17.88-14.99 9.33-0.92-8.9-6.2-5.09-10.23-11.81z" fill="url(#linearGradient3231)" fill-rule="evenodd"/>
      <path id="path2984" d="m311.61 524.57s5.82-12.84 3.09-26.64c-2.72-13.79 19.97 13.22 20.46 17.9 0.5 4.69-3.22 14.31-21.56 9.59-0.56-0.14-1.99-0.85-1.99-0.85z" fill="url(#linearGradient3233)" fill-rule="evenodd"/>
      <path id="path3002" fill-rule="evenodd" fill="#e3e2db" d="m479.82 409.4s-18.69 9.6-16.67 46.47c2.03 36.87 4.55 36.87 4.55 36.87s-16.67-43.94-4.55-65.66c12.13-21.72 17.68-17.17 16.67-17.68z"/>
      <path id="path3040" opacity=".59914" d="m500.9 416.08s-11.92 4.85-14.19 29.61c-2.28 24.77-0.79 24.98-0.79 24.98s-5.69-30.7 3.49-44.19c9.19-13.48 12.03-9.98 11.49-10.4z" fill="#e3e2db" fill-rule="evenodd"/>
      <path id="path3042" d="m255.06 503.34s-17.17-23.23-18.18-37.37 1.01-30.31 1.01-30.31l-1.51-12.62h-4.55s-15.15 21.21-8.59 40.91c6.57 19.7 16.67 29.29 16.67 29.29l7.58 1.52 7.57 8.58z" fill="url(#linearGradient3235)" fill-rule="evenodd"/>
    </g>
  </g>
  <metadata>
    <rdf:RDF>
      <cc:Work>
        <dc:format>image/svg+xml</dc:format>
        <dc:type rdf:resource="http://purl.org/dc/dcmitype/StillImage"/>
        <cc:license rdf:resource="http://creativecommons.org/licenses/publicdomain/"/>
        <dc:publisher>
          <cc:Agent rdf:about="http://openclipart.org/">
            <dc:title>Openclipart</dc:title>
          </cc:Agent>
        </dc:publisher>
        <dc:title>music</dc:title>
        <dc:date>2008-08-21T13:28:54</dc:date>
        <dc:description>clip art, clipart, face, face, head, head, headphones, headphones, icon, icon, image, media, music, music, png, public domain, svg, </dc:description>
        <dc:source>http://openclipart.org/detail/18615/music-by-hrum</dc:source>
        <dc:creator>
          <cc:Agent>
            <dc:title>hrum</dc:title>
          </cc:Agent>
        </dc:creator>
        <dc:subject>
          <rdf:Bag>
            <rdf:li>clip art</rdf:li>
            <rdf:li>clipart</rdf:li>
            <rdf:li>face</rdf:li>
            <rdf:li>head</rdf:li>
            <rdf:li>headphones</rdf:li>
            <rdf:li>icon</rdf:li>
            <rdf:li>image</rdf:li>
            <rdf:li>media</rdf:li>
            <rdf:li>music</rdf:li>
            <rdf:li>png</rdf:li>
            <rdf:li>public domain</rdf:li>
            <rdf:li>svg</rdf:li>
          </rdf:Bag>
        </dc:subject>
      </cc:Work>
      <cc:License rdf:about="http://creativecommons.org/licenses/publicdomain/">
        <cc:permits rdf:resource="http://creativecommons.org/ns#Reproduction"/>
        <cc:permits rdf:resource="http://creativecommons.org/ns#Distribution"/>
        <cc:permits rdf:resource="http://creativecommons.org/ns#DerivativeWorks"/>
      </cc:License>
    </rdf:RDF>
  </metadata>
</svg>
